<?xml version="1.0" standalone="no"?>
<!DOCTYPE svg PUBLIC "-//W3C//DTD SVG 1.1//EN" "http://www.w3.org/Graphics/SVG/1.1/DTD/svg11.dtd" >
<svg xmlns="http://www.w3.org/2000/svg">
<metadata>
This is a custom SVG webfont generated by Font Squirrel.
Copyright   :  1992 2002 Adobe Systems Incorporated All rights reserved  1992 2002 The Monotype Corporation PLC All rights reserved
Designer    : Unknown
Foundry URL : httpwwwadobecomtype
</metadata>
<defs>
<font id="GrotesqueMTStdRegular" horiz-adv-x="1216" >
<font-face units-per-em="2048" ascent="1477" descent="-571" />
<missing-glyph horiz-adv-x="491" />
<glyph unicode=" "  horiz-adv-x="491" />
<glyph unicode="&#x09;" horiz-adv-x="491" />
<glyph unicode="&#xa0;" horiz-adv-x="491" />
<glyph unicode="!" horiz-adv-x="555" d="M176 0v258h199v-258h-199zM180 1483h201l-35 -1059h-141z" />
<glyph unicode="&#x22;" horiz-adv-x="980" d="M164 1231v246h201v-246l-62 -285h-78zM616 1231v246h201v-246l-61 -285h-78z" />
<glyph unicode="#" horiz-adv-x="1368" d="M86 350v144h219l72 350h-291v143h320l86 397h143l-86 -397h401l84 397h144l-86 -397h190v-143h-217l-74 -350h291v-144h-317l-84 -395h-146l86 395h-403l-82 -395h-143l81 395h-188zM449 496h401l72 348h-402z" />
<glyph unicode="$" d="M113 375h192q23 -219 246 -252v524q-72 29 -110 47.5t-97 55t-91 72.5t-56.5 92.5t-24.5 121.5q0 223 207 318q63 29 174 41v86h137v-86q182 -31 277.5 -113t111.5 -268h-182q-12 102 -57 152.5t-150 70.5v-440q90 -43 144.5 -73t126 -85t107.5 -126t36 -159 q0 -111 -58.5 -199.5t-162.5 -140.5q-70 -33 -193 -49v-198h-137v200q-121 14 -194.5 45t-135.5 94q-51 55 -73.5 110t-36.5 159zM350 1073q0 -68 43 -115t160 -104v387q-94 -10 -148.5 -54t-54.5 -114zM690 119q106 14 167 72.5t61 146.5q0 76 -49.5 130t-178.5 120v-469z " />
<glyph unicode="%" horiz-adv-x="1748" d="M145 1124q0 174 81 281.5t210 107.5q127 0 207 -108.5t80 -280.5q0 -170 -80 -279.5t-205 -109.5q-131 0 -212 106.5t-81 282.5zM303 1141q0 -289 131 -289t131 268q0 276 -129 277q-63 0 -98 -66.5t-35 -189.5zM438 -86l770 1604h103l-766 -1604h-107zM1026 311 q0 172 81 277.5t212 105.5q121 0 203 -113.5t82 -281.5q0 -164 -82 -273.5t-203 -109.5q-133 0 -213 107.5t-80 287.5zM1180 330q0 -299 133 -299q63 0 99 70.5t36 199.5q0 131 -35 204t-96 73q-66 0 -101.5 -64.5t-35.5 -183.5z" />
<glyph unicode="&#x26;" horiz-adv-x="1323" d="M115 393q0 76 28.5 144.5t65.5 111.5t98.5 86t95 61.5t91.5 45.5q-66 164 -66 260q0 137 69.5 223t182.5 86q102 0 172 -79t70 -197q0 -117 -88 -224q-53 -61 -140 -112q139 -260 240 -410q47 80 67.5 139.5t34.5 157.5l129 -82q-35 -197 -139 -336q106 -125 193 -125 q20 0 57 7l16 -160q-66 -14 -100 -15q-78 0 -138.5 35t-138.5 125q-164 -164 -376 -164q-174 0 -299 124t-125 298zM279 395q0 -111 85 -190.5t203 -79.5q129 0 260 123q-117 168 -221 362l-55 103q-66 -37 -100.5 -59.5t-81.5 -62.5t-68.5 -88.5t-21.5 -107.5zM571 1139 q0 -78 70 -226q139 90 139 213q0 59 -28.5 99.5t-71.5 40.5q-47 0 -78 -35t-31 -92z" />
<glyph unicode="'" horiz-adv-x="555" d="M178 1231v246h201v-246l-62 -285h-77z" />
<glyph unicode="(" horiz-adv-x="768" d="M152 580q0 276 108 544q100 248 358 404v-185q-70 -68 -102.5 -113.5t-64.5 -121.5q-106 -238 -107 -545q0 -303 109 -545q33 -74 64.5 -116.5t98.5 -108.5v-186q-143 92 -221 186q-243 298 -243 787z" />
<glyph unicode=")" horiz-adv-x="768" d="M150 -209q70 68 102.5 114t64.5 122q106 238 107 544q0 303 -109 545q-33 74 -64.5 117t-98.5 108v187q143 -92 221 -187q244 -297 243 -786q0 -276 -108 -545q-100 -248 -358 -403v184z" />
<glyph unicode="*" horiz-adv-x="980" d="M123 1079v164l317 -53l-204 237l143 86l108 -294l113 292l143 -81l-213 -242l330 57v-168l-330 60l215 -258l-147 -82l-113 309l-108 -313l-146 86l209 258z" />
<glyph unicode="+" horiz-adv-x="1366" d="M135 588v157h467v469h158v-469h471v-157h-471v-467h-158v467h-467z" />
<glyph unicode="," horiz-adv-x="555" d="M176 -248q84 96 80 248h-76v262h201v-272q0 -213 -166 -318z" />
<glyph unicode="-" horiz-adv-x="768" d="M102 424v168h566v-168h-566z" />
<glyph unicode="." horiz-adv-x="555" d="M178 0v262h201v-262h-201z" />
<glyph unicode="/" horiz-adv-x="661" d="M72 -348l381 1843h139l-381 -1843h-139z" />
<glyph unicode="0" horiz-adv-x="980" d="M53 715q0 305 116 502.5t333 197.5q49 0 99 -14.5t111.5 -60.5t107.5 -119.5t78 -203.5t32 -298q0 -150 -21.5 -271.5t-52.5 -198.5t-76 -133.5t-84 -84t-85 -43t-69.5 -18.5t-47.5 -3q-29 0 -60 5t-76 23.5t-85 49.5t-80.5 88t-70.5 133t-49.5 192t-19.5 257zM244 707 q0 -281 65.5 -437.5t179.5 -156.5q248 0 248 620q0 254 -62.5 395.5t-174.5 141.5q-121 0 -188.5 -148.5t-67.5 -414.5z" />
<glyph unicode="1" horiz-adv-x="980" d="M182 936v168q170 80 350 309h123v-1413h-184v1118q-154 -125 -289 -182z" />
<glyph unicode="2" horiz-adv-x="980" d="M57 0q4 84 25.5 154.5t47.5 119t80 105.5t93 90t119 98q119 96 170 144.5t93 123t42 160.5q0 127 -61.5 199t-171.5 72q-106 0 -171 -66.5t-65 -177.5q0 -82 59 -199l-137 -75q-86 147 -86 276q0 176 115 284.5t297 108.5t300 -114.5t118 -292.5q0 -98 -27 -177 t-86 -145.5t-104 -102.5t-134 -100q-164 -115 -216 -168t-103 -141h653v-176h-850z" />
<glyph unicode="3" horiz-adv-x="980" d="M57 330q0 59 37 182l150 -66q-18 -61 -19 -98q0 -106 67.5 -168.5t182.5 -62.5q111 0 178.5 74.5t67.5 197.5q0 84 -31 143.5t-68.5 88t-99 44t-96.5 17.5t-86 2v145q43 -6 102.5 0.5t113.5 20.5t93 64.5t39 129.5q0 106 -57.5 165t-161.5 59q-78 0 -136.5 -44 t-58.5 -106q0 -27 13 -69l-154 -68q-25 80 -24 121q0 133 117.5 225t285.5 92q158 0 264.5 -103.5t106.5 -254.5q0 -72 -22.5 -127t-64.5 -92t-72 -55.5t-73 -36.5q274 -88 275 -357q0 -182 -129 -302t-328 -120q-178 0 -295 101.5t-117 257.5z" />
<glyph unicode="4" horiz-adv-x="980" d="M66 326v235l526 854h156v-936h167v-153h-167v-326h-181v326h-501zM184 479h383v621z" />
<glyph unicode="5" horiz-adv-x="980" d="M74 350l162 53q4 -43 8 -69.5t19.5 -71.5t38 -71.5t64.5 -47t97 -20.5q117 0 184.5 94t67.5 256q0 152 -61.5 237t-172.5 85q-74 0 -124 -39t-95 -131l-145 51l55 713h657v-177h-522l-26 -354q117 94 247 94q168 0 273.5 -129t105.5 -334q0 -236 -120.5 -380t-319.5 -144 q-172 0 -274.5 101.5t-118.5 283.5z" />
<glyph unicode="6" horiz-adv-x="980" d="M63 662q0 756 461 755q80 0 142.5 -23.5t97.5 -51t63.5 -78t37.5 -77t24 -73.5l-170 -49q-55 193 -211 192q-76 0 -127 -40.5t-74.5 -118.5t-32 -143.5t-12.5 -161.5q117 145 287 145q162 0 266.5 -127t104.5 -328q0 -242 -110 -380t-302 -138q-158 0 -270 113 q-96 94 -135.5 224.5t-39.5 359.5zM276 473q0 -166 60.5 -263t165.5 -97q102 0 162.5 92t60.5 248q0 160 -55.5 249t-151.5 89q-109 0 -175.5 -88.5t-66.5 -229.5z" />
<glyph unicode="7" horiz-adv-x="980" d="M78 1237v162h827v-152q-84 -145 -147 -305q-90 -227 -141.5 -412.5t-63.5 -278.5t-27 -251h-194q25 190 46 292.5t66 242.5q111 358 293 702h-659z" />
<glyph unicode="8" horiz-adv-x="980" d="M47 371q0 182 139 291q61 49 176 77q-49 20 -80.5 38t-84 56.5t-80 98t-27.5 135.5q0 152 117 252t293 100q170 0 285.5 -100t115.5 -250q0 -74 -29.5 -134.5t-83 -100t-86 -57t-79.5 -38.5q121 -29 180 -75q133 -104 133 -304q0 -172 -128 -281.5t-329 -109.5 q-188 0 -310 114t-122 288zM246 393q0 -131 66.5 -207.5t179 -76.5t180 76.5t67.5 203.5q0 121 -69.5 197t-182.5 76q-102 0 -171.5 -78t-69.5 -191zM279 1042q0 -96 60 -162.5t148 -66.5q96 0 158 64.5t62 166.5q0 100 -59.5 165t-152 65t-154.5 -66t-62 -166z" />
<glyph unicode="9" horiz-adv-x="980" d="M59 932q0 211 119 347t301 136q51 0 102.5 -14.5t115 -58.5t111.5 -115.5t81 -201.5t33 -298q0 -242 -44 -395.5t-141 -251.5q-111 -113 -297 -113q-74 0 -134 22.5t-96 52.5t-65.5 77t-41 74.5t-23.5 68.5l178 72q33 -113 78 -156t129 -43q51 0 92 21.5t65.5 62.5t41 82 t24.5 98.5t11 90t6 79.5q-139 -129 -283 -129q-158 0 -260.5 137.5t-102.5 354.5zM258 942q0 -166 58.5 -258t162.5 -92q100 0 163 91t63 239q0 150 -66 249t-164 99t-157.5 -90.5t-59.5 -237.5z" />
<glyph unicode=":" horiz-adv-x="555" d="M176 0v260h203v-260h-203zM176 752v262h203v-262h-203z" />
<glyph unicode=";" horiz-adv-x="555" d="M174 -248q49 57 65.5 106.5t18.5 141.5h-78v262h203v-227q0 -180 -92 -295q-25 -31 -76 -68zM180 756v262h201v-262h-201z" />
<glyph unicode="&#x3c;" horiz-adv-x="1366" d="M135 596v143l1094 459v-170l-881 -360l881 -361v-170z" />
<glyph unicode="=" horiz-adv-x="1366" d="M135 354v158h1096v-158h-1096zM135 827v158h1096v-158h-1096z" />
<glyph unicode="&#x3e;" horiz-adv-x="1366" d="M135 137v170l883 359l-883 360v172l1094 -461v-141z" />
<glyph unicode="?" horiz-adv-x="1087" d="M133 1116q8 113 34 179.5t83 123.5q113 113 303 113q170 0 286.5 -116t116.5 -283q0 -113 -59 -213.5t-192 -214.5q-76 -66 -97.5 -112t-21.5 -142h-160q2 158 35 224t123 150t134 150.5t44 157.5q0 96 -65.5 163.5t-159.5 67.5q-229 0 -238 -336zM403 0v256h201v-256 h-201z" />
<glyph unicode="@" horiz-adv-x="2078" d="M92 469q0 127 30 259t103.5 271.5t182 247t283.5 177t390 69.5q213 0 383 -71.5t270.5 -186.5t151.5 -245t51 -261q0 -158 -57 -299t-145 -233.5t-192.5 -146.5t-201.5 -54q-102 0 -146 37t-52 131q-143 -166 -303 -166q-158 0 -262.5 128t-104.5 325q0 143 67.5 288.5 t189.5 244.5t261 99q188 0 303 -184l33 156h180l-159 -742q-14 -68 -15 -86q0 -27 21.5 -46t50.5 -19q41 0 103.5 39t126 106.5t108.5 178t45 231.5q0 272 -204 451.5t-513 179.5q-358 0 -594.5 -245t-236.5 -618q0 -365 228 -566.5t638 -201.5q262 0 437 88.5t261 212.5 h183q-16 -31 -34 -59.5t-93.5 -107t-164.5 -134t-248 -101.5t-343 -46q-473 0 -742.5 239.5t-269.5 659.5zM657 434q0 -129 61.5 -209t160.5 -80q127 0 242.5 150.5t115.5 349.5q0 133 -63.5 212t-169.5 79q-133 0 -240 -154.5t-107 -347.5z" />
<glyph unicode="A" horiz-adv-x="1748" d="M139 0l647 1477h181l645 -1477h-205l-158 356h-745l-158 -356h-207zM582 539h587l-292 673z" />
<glyph unicode="B" horiz-adv-x="1429" d="M207 0v1477h588q205 0 332.5 -95.5t127.5 -248.5q0 -240 -301 -340q106 -27 168 -61t109 -91q76 -90 76 -223q0 -186 -125 -302t-328 -116h-647zM410 172h340q166 0 256 66.5t90 189.5q0 135 -84 206t-246 71h-356v-533zM410 879h319q311 0 311 223q0 205 -280 205h-350 v-428z" />
<glyph unicode="C" horiz-adv-x="1536" d="M141 694q0 365 191.5 591t501.5 226q117 0 215 -32.5t155.5 -76.5t101.5 -100.5t60 -93.5t25 -65l-156 -133q-16 47 -28.5 75.5t-46.5 81t-70.5 82t-101 54t-142.5 24.5q-219 0 -353.5 -165t-134.5 -431q0 -158 40 -275.5t94.5 -177t127 -96.5t120.5 -45t94 -8 q182 0 315 129q57 55 108 160l140 -146q-27 -45 -46.5 -74.5t-69.5 -82t-104.5 -84t-144.5 -57t-194 -25.5q-133 0 -243 34.5t-180.5 90t-123.5 130.5t-81 143.5t-44 144t-20.5 120.5t-4.5 82z" />
<glyph unicode="D" horiz-adv-x="1642" d="M244 0v1477h551q301 0 465 -164q221 -215 221 -574q0 -344 -176.5 -541.5t-485.5 -197.5h-575zM446 182h367q213 0 333 145.5t120 401.5q0 311 -160 461q-109 106 -309 106h-351v-1114z" />
<glyph unicode="E" d="M186 0v1477h920l-55 -174h-664v-453h608v-176h-608v-498h666l59 -176h-926z" />
<glyph unicode="F" d="M209 0v1477h921l-79 -183h-639v-452h546v-183h-546v-659h-203z" />
<glyph unicode="G" horiz-adv-x="1642" d="M172 686q0 383 196.5 605t536.5 222q162 0 295 -74.5t215 -189.5l-119 -164q-154 244 -401 244q-238 0 -373 -167t-135 -464q0 -268 134 -418.5t372 -150.5q98 0 179 33t118 65.5t80 81.5v240h-576v182h779v-485q-76 -100 -138 -146q-197 -152 -446 -151 q-326 0 -521.5 200.5t-195.5 536.5z" />
<glyph unicode="H" horiz-adv-x="1536" d="M199 0v1477h202v-627h736v627h202v-1477h-202v670h-736v-670h-202z" />
<glyph unicode="I" horiz-adv-x="661" d="M229 0v1477h203v-1477h-203z" />
<glyph unicode="J" horiz-adv-x="1214" d="M135 358q0 72 6 152l199 127q-23 -154 -23 -221q0 -133 62.5 -208t173.5 -75q106 0 162.5 69.5t56.5 200.5v1074h203v-1106q0 -195 -112.5 -307.5t-307.5 -112.5q-106 0 -187 34.5t-124 83t-68.5 111t-33 104t-7.5 74.5z" />
<glyph unicode="K" horiz-adv-x="1429" d="M211 0v1477h203v-676l653 676h262l-522 -537l536 -940h-221l-454 797l-254 -265v-532h-203z" />
<glyph unicode="L" d="M205 0v1477h203v-1301h706v-176h-909z" />
<glyph unicode="M" horiz-adv-x="1748" d="M193 0v1477h315l369 -1203l366 1203h313v-1477h-182v1313l-399 -1313h-199l-401 1313v-1313h-182z" />
<glyph unicode="N" horiz-adv-x="1536" d="M205 0v1477h272l651 -1151v1151h203v-1477h-241l-684 1204v-1204h-201z" />
<glyph unicode="O" horiz-adv-x="1642" d="M121 739q0 356 194.5 564t511.5 208q311 0 504 -212t193 -556q0 -193 -54.5 -341t-132 -230t-180 -135t-183.5 -69.5t-155 -16.5q-322 0 -510 211.5t-188 576.5zM336 725q0 -264 135 -430t350 -166q223 0 355.5 168t132.5 448q0 266 -131 426t-351 160 q-227 0 -359 -162.5t-132 -443.5z" />
<glyph unicode="P" horiz-adv-x="1429" d="M215 0v1477h606q211 0 343 -124t132 -321q0 -199 -139 -316.5t-375 -117.5h-364v-598h-203zM416 774h215q68 0 107.5 2t98 9.5t93.5 23.5t70.5 44t52 73t16.5 106q0 266 -324 266h-329v-524z" />
<glyph unicode="Q" horiz-adv-x="1642" d="M121 733q0 170 44 306.5t113.5 222.5t164 144t186.5 81.5t188 23.5q311 0 508 -213t197 -548q0 -221 -74 -394.5t-209 -269.5q-53 -39 -139 -78q61 -86 110.5 -132t108.5 -75l-158 -73q-74 41 -115.5 83t-115.5 146q-6 -2 -49 -6q-12 0 -31 -1t-25 -1q-326 0 -515 209.5 t-189 574.5zM338 725q0 -92 20.5 -181t69.5 -187.5t155.5 -162t256.5 -67.5q-84 125 -181 195l175 49q80 -63 174 -207q41 18 81.5 50t95 96.5t88.5 178t34 256.5q0 264 -132.5 424t-351.5 160q-223 0 -354 -162.5t-131 -441.5z" />
<glyph unicode="R" horiz-adv-x="1429" d="M184 0v1477h627q201 0 331 -114t130 -290q0 -156 -77 -245t-234 -134l368 -694h-217l-356 664h-369v-664h-203zM387 838h387q139 0 212 60t73 175q0 231 -301 232h-371v-467z" />
<glyph unicode="S" horiz-adv-x="1429" d="M131 340l170 141q20 -92 51 -149.5t88 -102.5q119 -100 312 -100q137 0 233 80t96 194q0 109 -84 171.5t-292 111.5q-172 41 -238 69.5t-160 104.5q-113 119 -112 260q0 176 149.5 286t390.5 110q111 0 200 -27t139 -58.5t94 -85t56.5 -78t30.5 -65.5l-151 -141 q-12 39 -22.5 63.5t-40 68.5t-66.5 69.5t-104.5 47t-151.5 21.5q-145 0 -230.5 -56t-85.5 -155q0 -49 32 -87t97.5 -65.5t107.5 -41t120 -31.5q86 -20 144.5 -36.5t140 -54.5t131 -85t86 -124t36.5 -173q0 -213 -159.5 -343t-423.5 -130q-317 0 -484 194q-59 72 -100 197z " />
<glyph unicode="T" horiz-adv-x="1429" d="M115 1298v179h1200v-179h-500v-1298h-201v1298h-499z" />
<glyph unicode="U" horiz-adv-x="1536" d="M205 444v1033h203v-1014q0 -158 95 -242t275 -84q80 0 155 25.5t118 70.5q78 78 77 273v971h203v-1002q0 -246 -125 -373q-147 -152 -440 -151q-262 0 -411.5 131t-149.5 362z" />
<glyph unicode="V" horiz-adv-x="1536" d="M129 1477h213l436 -1166l420 1166h209l-533 -1477h-186z" />
<glyph unicode="W" horiz-adv-x="2197" d="M121 1477h198l345 -1198l329 1198h209l324 -1201l354 1201h197l-432 -1477h-218l-329 1214l-334 -1214h-215z" />
<glyph unicode="X" horiz-adv-x="1429" d="M98 0l488 758l-486 719h244l358 -535l347 535h231l-459 -713l510 -764h-241l-388 580l-368 -580h-236z" />
<glyph unicode="Y" horiz-adv-x="1429" d="M84 1477h227l396 -666l413 666h228l-539 -871v-606h-203v598z" />
<glyph unicode="Z" horiz-adv-x="1323" d="M104 0v113l832 1185h-756v179h1039v-115l-832 -1184h827v-178h-1110z" />
<glyph unicode="[" horiz-adv-x="768" d="M125 -340v1819h518v-115h-330v-1589h330v-115h-518z" />
<glyph unicode="\" horiz-adv-x="661" d="M70 1495h139l381 -1843h-139z" />
<glyph unicode="]" horiz-adv-x="768" d="M125 -225h330v1591h-330v115h518v-1821h-518v115z" />
<glyph unicode="^" horiz-adv-x="960" d="M53 690l355 801h145l354 -801h-182l-246 598l-241 -598h-185z" />
<glyph unicode="_" horiz-adv-x="1024" d="M0 -154h1024v-102h-1024v102z" />
<glyph unicode="`" horiz-adv-x="681" d="M72 1399h239l135 -279h-145z" />
<glyph unicode="a" horiz-adv-x="1087" d="M92 299q0 127 92 223q102 106 336 129q111 12 145.5 25.5t82.5 62.5q-2 92 -41 123t-152 31q-117 0 -182.5 -37t-100.5 -123l-141 76q18 47 37.5 76.5t63.5 70.5t124 62.5t191 21.5q90 0 156.5 -14t105.5 -42t63.5 -54.5t33.5 -67.5t11.5 -62.5t2.5 -58.5l-2 -495 q0 -94 12 -114.5t67 -22.5v-117q-74 -23 -108 -23q-47 0 -78 17.5t-44 50.5t-17.5 61.5t-4.5 69.5q-43 -53 -76.5 -88t-108.5 -73t-154 -38q-133 0 -223.5 94.5t-90.5 235.5zM272 297q0 -84 53.5 -136t137.5 -52q109 0 194 81q51 49 71 105.5t20 150.5v164q-53 -41 -87 -54 t-122 -30q-156 -27 -215 -98q-52 -57 -52 -131z" />
<glyph unicode="b" d="M209 0v1477h172v-711q25 55 44 89t57 81t94.5 70.5t128.5 23.5q172 0 272 -142.5t100 -387.5q0 -236 -101.5 -380.5t-264.5 -144.5q-76 0 -134.5 24t-98.5 71t-58.5 77.5t-42.5 81.5v-229h-168zM379 506q0 -217 102 -318q80 -76 181 -75q113 0 175 97t62 271 q0 158 -27.5 244t-93.5 131q-57 35 -116 35q-131 -2 -207 -105.5t-76 -279.5z" />
<glyph unicode="c" horiz-adv-x="1087" d="M111 512q0 229 132 378.5t337 149.5q94 0 168.5 -31.5t116.5 -80.5t64.5 -92t31.5 -82l-142 -68q-57 209 -246 209q-137 0 -210.5 -100.5t-73.5 -286.5q0 -215 98 -315q82 -86 201 -87q195 0 260 213l129 -69q-6 -33 -28.5 -76t-66.5 -91t-124 -81t-180 -33 q-207 0 -337 151.5t-130 391.5z" />
<glyph unicode="d" d="M139 506q0 236 105.5 382t273.5 146q70 0 125 -22.5t93 -67.5t58.5 -80t47.5 -92v705h172v-1477h-170v236q-6 -10 -26.5 -49.5t-30 -54.5t-32 -47t-43 -46t-49 -33.5t-64.5 -27t-79 -7.5q-174 0 -277.5 145.5t-103.5 389.5zM317 481q0 -172 64.5 -268t179.5 -96 q109 0 182 78q98 92 99 313q0 109 -29 187.5t-63.5 115.5t-81.5 57.5t-67.5 22.5t-37.5 2q-246 -11 -246 -412z" />
<glyph unicode="e" horiz-adv-x="1085" d="M100 503.5q0 237.5 127 386t330 148.5q186 0 308 -137t122 -344q0 -23 -4 -108h-704q4 -96 33.5 -166t62.5 -103t79 -51t66.5 -20.5t42.5 -2.5q68 0 120 24t83 67t43 67.5t27 63.5l137 -68q-47 -104 -107 -164q-131 -127 -317 -127q-201 0 -325 148.5t-124 386zM283 586 h526q-4 88 -31.5 152.5t-58.5 94t-73 46t-60.5 18.5t-36.5 2q-121 0 -189.5 -81.5t-76.5 -231.5z" />
<glyph unicode="f" horiz-adv-x="661" d="M45 866v146h201v258q0 131 51 179t188 48q49 0 129 -10v-144q-43 4 -77 5q-68 0 -93.5 -28t-25.5 -101v-207h200v-146h-200v-866h-172v866h-201z" />
<glyph unicode="g" d="M152 500q0 242 105 389t278 147q72 0 127 -22.5t94 -69.5t56 -77.5t46 -88.5v234h168v-983q0 -199 -115.5 -308.5t-326.5 -109.5q-174 0 -281.5 72.5t-107.5 187.5q0 35 16 68l160 -70q-2 -59 57 -88t156 -29q127 0 198.5 57.5t71.5 157.5v238q-123 -236 -326 -236 q-168 0 -272 147.5t-104 383.5zM334 528q0 -252 92 -346q61 -66 166 -65q125 0 194.5 95t69.5 265q0 195 -75.5 308.5t-205.5 113.5q-115 0 -178 -97.5t-63 -273.5z" />
<glyph unicode="h" d="M205 0v1477h172v-639q152 201 325 200q143 0 226.5 -98t83.5 -266v-674h-172v653q0 109 -58.5 173.5t-154.5 64.5q-115 0 -182.5 -73t-67.5 -193v-625h-172z" />
<glyph unicode="i" horiz-adv-x="555" d="M193 0v1012h172v-1012h-172zM193 1206v221h172v-221h-172z" />
<glyph unicode="j" horiz-adv-x="555" d="M61 -246q25 -2 46 -2q57 0 79 17q31 23 31 104v1139h172v-1170q0 -236 -244 -235q-33 0 -84 8v139zM217 1206v224h172v-224h-172z" />
<glyph unicode="k" horiz-adv-x="980" d="M156 0v1477h172v-895l356 430h190l-278 -320l332 -692h-185l-264 557l-153 -178v-379h-170z" />
<glyph unicode="l" horiz-adv-x="555" d="M193 0v1477h172v-1477h-172z" />
<glyph unicode="m" horiz-adv-x="1748" d="M190 0v1012h170v-187q119 213 297 213q106 0 173 -55t110 -166q31 49 51.5 75t60.5 66.5t91 60t112 19.5q131 0 217.5 -94t86.5 -235v-709h-170v653q0 113 -53.5 176.5t-145.5 63.5q-229 0 -229 -295v-598h-173v612q0 145 -48 214t-150 69q-100 0 -165 -75t-65 -191v-629 h-170z" />
<glyph unicode="n" d="M205 0v1012h172v-181q141 207 330 207q137 0 222 -93t85 -243v-702h-172v651q0 113 -55.5 176.5t-153.5 63.5q-113 0 -184.5 -70.5t-71.5 -181.5v-639h-172z" />
<glyph unicode="o" d="M137 510q0 231 131 379.5t336 148.5q209 0 342 -146.5t133 -375.5q0 -250 -130 -398.5t-347 -148.5q-207 0 -336 150.5t-129 390.5zM317 500q0 -182 79 -282.5t222 -100.5q131 0 206 103.5t75 283.5q0 197 -81 293t-216 96q-133 0 -209 -101.5t-76 -291.5z" />
<glyph unicode="p" d="M207 -391v1403h170v-238q27 57 48 93t60 79t95.5 64.5t130.5 21.5q168 0 269 -143.5t101 -378.5q0 -244 -104.5 -390.5t-280.5 -146.5q-66 0 -117 20.5t-88.5 62.5t-59 78t-52.5 97v-622h-172zM377 498q0 -174 76.5 -277.5t205.5 -103.5q90 0 148 61q92 92 92 344 q0 365 -240 365q-133 0 -207.5 -103.5t-74.5 -285.5z" />
<glyph unicode="q" d="M141 500q0 244 102.5 388t276.5 144q76 0 134.5 -25.5t96 -74.5t55 -82t38.5 -82v244h170v-1403h-172v633q-94 -270 -318 -271q-168 0 -275.5 149t-107.5 380zM317 518q0 -281 132 -364q51 -35 118 -35q131 6 205 104.5t74 268.5q0 113 -29 195.5t-63.5 120.5t-82.5 60.5 t-69.5 24.5t-42.5 2q-113 0 -177.5 -101.5t-64.5 -275.5z" />
<glyph unicode="r" horiz-adv-x="768" d="M180 0v1012h172v-197q27 49 45.5 77t52 66.5t76.5 58t95 19.5q18 0 71 -4v-178q-57 8 -88 8q-113 0 -183.5 -73.5t-70.5 -188.5v-600h-170z" />
<glyph unicode="s" horiz-adv-x="1087" d="M123 254l137 82q25 -229 291 -230q104 0 174 43.5t70 109t-61.5 105t-203.5 64.5q-84 16 -143 35.5t-116.5 54.5t-87 92.5t-29.5 132.5q0 133 109.5 215t283.5 82q102 0 182 -31.5t121 -79.5t61.5 -89t24.5 -72l-121 -82q-51 213 -272 213q-96 0 -164 -41t-68 -98 q0 -61 61.5 -99t200.5 -61q2 0 13 -2q375 -57 379 -313q0 -14 -3.5 -37t-26 -77t-63.5 -95t-131 -75t-211 -34q-180 0 -292 90q-45 35 -68.5 76t-46.5 121z" />
<glyph unicode="t" horiz-adv-x="661" d="M27 868v144h182v264l172 123v-387h215v-144h-215v-612q0 -80 19.5 -109.5t70.5 -29.5q33 0 113 18v-143q-104 -23 -156 -23q-119 0 -169 42t-50 143v714h-182z" />
<glyph unicode="u" d="M203 299v713h172v-637q0 -256 203 -256q109 0 186.5 78.5t77.5 191.5v623h172v-1012h-176v178q-135 -211 -318 -211q-143 0 -230 91t-87 241z" />
<glyph unicode="v" horiz-adv-x="980" d="M80 1012h166l250 -772l243 772h164l-315 -1012h-182z" />
<glyph unicode="w" horiz-adv-x="1536" d="M78 1012h168l223 -817l219 817h160l229 -813l217 813h166l-305 -1012h-158l-231 819l-223 -819h-162z" />
<glyph unicode="x" horiz-adv-x="980" d="M78 0l313 532l-297 480h182l205 -328l193 328h178l-279 -477l332 -535h-182l-240 383l-223 -383h-182z" />
<glyph unicode="y" horiz-adv-x="980" d="M78 1012h162l264 -791l235 791h164l-325 -1051l-17 -57q-20 -68 -31.5 -99.5t-36 -76.5t-54 -65.5t-80 -37t-117.5 -16.5q-43 0 -117 8v143q72 -12 113 -12q82 0 115.5 40t78.5 187z" />
<glyph unicode="z" horiz-adv-x="980" d="M129 0v129l485 743h-444v140h668v-105l-504 -770h518v-137h-723z" />
<glyph unicode="{" horiz-adv-x="684" d="M53 485v164q59 2 100.5 24.5t62 52.5t30.5 89t12 100t2 121q0 86 1 125t7 103.5t18.5 94.5t35 69.5t56.5 56t83 30t117 13.5h55v-156h-31q-106 0 -139 -39t-33 -168v-145q0 -152 -25.5 -242t-66.5 -132t-117 -79q117 -49 163 -148.5t46 -303.5v-146q0 -129 33 -168 t139 -39h31v-155h-55q-68 0 -117 13t-83 29.5t-56.5 56.5t-35 69.5t-18.5 94t-7 103.5t-1 125q0 80 -2 121t-12 100.5t-30.5 89t-62 52t-100.5 24.5z" />
<glyph unicode="|" horiz-adv-x="1118" d="M479 -512v2048h160v-2048h-160z" />
<glyph unicode="}" horiz-adv-x="684" d="M51 -238h31q106 0 139 39t33 168v146q0 205 46 304t163 148q-74 35 -114 74t-67.5 132t-27.5 247v145q0 129 -33 168t-139 39h-31v156h55q68 0 117 -13.5t83 -30t56.5 -56t35 -69.5t18.5 -94.5t7 -103.5t1 -125q0 -80 2 -121t12.5 -100t30.5 -89t61 -52.5t101 -24.5v-164 q-59 -2 -100.5 -24.5t-61.5 -52t-30.5 -89t-12.5 -100.5t-2 -121q0 -86 -1 -125t-7 -103.5t-18.5 -94t-35 -69.5t-56.5 -56.5t-83 -29.5t-117 -13h-55v155z" />
<glyph unicode="~" horiz-adv-x="1343" d="M127 582v168q154 129 303 129q96 0 293 -95q131 -66 203 -65q127 0 291 143v-170q-154 -131 -293 -131q-61 0 -121 19.5t-187 81.5q-131 61 -194 61q-131 0 -295 -141z" />
<glyph unicode="&#xa1;" horiz-adv-x="555" d="M178 -340l27 1059h141l31 -1059h-199zM178 885v260h199v-260h-199z" />
<glyph unicode="&#xa2;" horiz-adv-x="1087" d="M111 512q0 229 132 378.5t337 149.5q39 0 73 -6l135 379h156l-153 -428q74 -43 115.5 -108.5t54.5 -122.5l-142 -68q-27 100 -82 152l-256 -709q51 -23 107 -23q195 0 260 213l129 -69q-6 -33 -28.5 -76t-66.5 -91t-124 -81t-180 -33q-80 0 -146 27l-141 -393h-152 l166 460q-194 148 -194 449zM289 508q0 -193 73 -283l240 668q-10 2 -29 2q-137 0 -210.5 -100.5t-73.5 -286.5z" />
<glyph unicode="&#xa3;" horiz-adv-x="1323" d="M72 154q0 88 71.5 148t175.5 60q61 0 162 -32q6 59 6 80q0 106 -41 247h-305v154h273q-25 139 -25 213q0 174 107.5 286.5t273.5 112.5q115 0 202 -55t128 -156q23 -55 28 -159l-196 20q-4 94 -49 144.5t-123 50.5q-82 0 -129 -60.5t-47 -165.5q0 -70 30 -231h306v-154 h-275q10 -80 10 -129q0 -143 -51 -254q133 -70 196.5 -92t127.5 -22q78 0 117.5 42t37.5 117h170q-8 -176 -94 -264q-90 -90 -248 -90q-98 0 -184 38t-199 114q-104 -152 -258 -152q-84 0 -141 54.5t-57 134.5zM176 152q0 -33 27.5 -55.5t68.5 -22.5q82 0 154 114 q-86 53 -143 54q-43 0 -75 -27.5t-32 -62.5z" />
<glyph unicode="&#xa4;" horiz-adv-x="1366" d="M182 274l127 127q-82 115 -82 264.5t84 266.5l-129 129l105 106l131 -129q119 84 266 84q139 0 262 -86l131 131l105 -106l-131 -129q88 -115 88 -264.5t-86 -264.5l129 -129l-105 -106l-131 131q-117 -88 -264 -88q-150 0 -266 84l-127 -127zM377 666q0 -127 89 -217.5 t216 -90.5t217 91.5t90 218.5t-89 216t-216 89t-217 -90t-90 -217z" />
<glyph unicode="&#xa5;" horiz-adv-x="1429" d="M84 1477h225l398 -584l413 584h228l-463 -668h426v-127h-504v-182h504v-127h-504v-373h-201v373h-487v127h487v182h-487v127h411z" />
<glyph unicode="&#xa6;" horiz-adv-x="1118" d="M479 -358v716h160v-716h-160zM479 666v716h160v-716h-160z" />
<glyph unicode="&#xa7;" horiz-adv-x="980" d="M96 559q0 74 22.5 135.5t67.5 107.5t70 66.5t68 49.5q-170 115 -170 280q0 131 99 217t247 86q315 0 358 -323l-172 -45q-12 229 -188 229q-72 0 -121 -40t-49 -97.5t49 -109.5t172 -124q184 -109 261 -207t77 -221q0 -207 -219 -352q88 -74 125.5 -139.5t37.5 -149.5 q0 -131 -100 -215t-258 -84q-201 0 -299 172q-33 61 -49 150l176 43q4 -111 53 -170.5t140 -59.5q70 0 119 43t49 103q0 57 -51.5 109.5t-174.5 121.5q-182 106 -261 203.5t-79 220.5zM254 614q0 -37 8 -67.5t30.5 -60t42 -50t64.5 -50.5t72 -47t90 -54q94 57 132 112.5 t38 130.5q0 68 -51 129.5t-180 141.5q-39 25 -64 43q-182 -105 -182 -228z" />
<glyph unicode="&#xa8;" horiz-adv-x="681" d="M61 1139v204h187v-204h-187zM434 1139v204h187v-204h-187z" />
<glyph unicode="&#xa9;" horiz-adv-x="1511" d="M0 737q0 311 221 532.5t535 221.5q311 0 532 -221t221 -533q0 -313 -221 -534t-532 -221q-313 0 -534.5 221t-221.5 534zM125 737q0 -262 185.5 -446.5t445.5 -184.5t444 185.5t184 445.5t-184 444.5t-444 184.5t-445.5 -184.5t-185.5 -444.5zM360 748q0 186 111 298.5 t293 112.5q131 0 219 -61.5t121 -173.5l-119 -29q-59 154 -233 154q-115 0 -185.5 -88.5t-70.5 -231.5t69.5 -225t190.5 -82q88 0 153.5 52t87.5 140l123 -36q-31 -127 -128 -201t-234 -74q-186 0 -292 119t-106 326z" />
<glyph unicode="&#xaa;" horiz-adv-x="681" d="M55 1046.5q0 90.5 69 147.5t193 70q74 10 97.5 18t54.5 39q0 53 -24.5 76.5t-94.5 23.5q-76 0 -116.5 -23.5t-63.5 -78.5l-90 49q33 78 93 110.5t167 32.5q236 0 235 -159v-375q0 -31 9.5 -40t42.5 -11v-76q-49 -14 -70 -14q-45 0 -65.5 28.5t-24.5 96.5 q-59 -70 -106.5 -96.5t-112.5 -26.5q-84 0 -138.5 59t-54.5 149.5zM170 1044q0 -53 33 -85.5t86 -32.5q70 0 124 53t54 115v145q-47 -35 -131 -51q-166 -33 -166 -144z" />
<glyph unicode="&#xab;" horiz-adv-x="980" d="M55 567l271 500h178l-271 -498l271 -497h-178zM477 567l271 500h178l-271 -498l271 -497h-178z" />
<glyph unicode="&#xac;" horiz-adv-x="1366" d="M135 827v158h1096v-645h-158v487h-938z" />
<glyph unicode="&#xad;" horiz-adv-x="768" d="M102 424v168h566v-168h-566z" />
<glyph unicode="&#xae;" horiz-adv-x="1511" d="M0 737q0 311 221 532.5t535 221.5q311 0 532 -221t221 -533q0 -313 -221 -534t-532 -221q-313 0 -534.5 221t-221.5 534zM125 737q0 -262 185.5 -446.5t445.5 -184.5t444 185.5t184 445.5t-184 444.5t-444 184.5t-445.5 -184.5t-185.5 -444.5zM424 319v811h278 q154 0 222 -26q53 -23 90 -76t37 -110q0 -98 -64.5 -163t-167.5 -73q45 -18 86 -62.5t103 -142.5l98 -158h-160l-72 127q-78 137 -121.5 177.5t-119.5 40.5h-78v-345h-131zM555 776h160q197 0 196 123q0 68 -46 94.5t-160 26.5h-150v-244z" />
<glyph unicode="&#xaf;" horiz-adv-x="681" d="M29 1153v147h624v-147h-624z" />
<glyph unicode="&#xb0;" horiz-adv-x="819" d="M133 1214.5q0 114.5 81 195.5t195.5 81t195.5 -81t81 -195.5t-81 -196.5t-195.5 -82t-195.5 82t-81 196.5zM242 1214.5q0 -69.5 49 -120t118.5 -50.5t119 49.5t49.5 120.5q0 70 -49.5 119t-119 49t-118.5 -49t-49 -118.5z" />
<glyph unicode="&#xb1;" horiz-adv-x="1366" d="M135 -49v158h1096v-158h-1096zM135 758v157h467v471h158v-471h471v-157h-471v-467h-158v467h-467z" />
<glyph unicode="&#xb2;" horiz-adv-x="661" d="M78 774q10 94 58 158.5t132 134.5q102 84 135 128t43 116q-4 55 -35.5 90t-82.5 35q-55 0 -92 -34t-37 -83q0 -29 16 -78l-96 -51q-31 68 -31 117q0 94 68.5 156.5t173.5 62.5q115 0 184.5 -59.5t69.5 -157.5q0 -78 -39 -134.5t-148 -136.5q-135 -98 -186 -159h362v-105 h-495z" />
<glyph unicode="&#xb3;" horiz-adv-x="661" d="M74 944q0 27 20 88l105 -45q-8 -57 16.5 -90t50 -39t53.5 -6q55 0 92.5 37t37.5 94q0 66 -44.5 101.5t-138.5 43.5v93q168 2 168 106q0 47 -32.5 77t-86.5 30q-20 0 -38.5 -4.5t-39 -26t-18.5 -62.5l-104 -38q-10 51 -11 71q0 66 61.5 110t156.5 44q106 0 172.5 -51.5 t66.5 -135.5q0 -57 -25.5 -95t-86.5 -75q139 -68 139 -194q0 -92 -78 -156.5t-186 -64.5q-104 0 -177 54t-73 134z" />
<glyph unicode="&#xb4;" horiz-adv-x="681" d="M240 1120l133 279h235l-219 -279h-149z" />
<glyph unicode="&#xb5;" horiz-adv-x="1138" d="M139 -408v1450h178v-497q0 -143 15.5 -213t60.5 -119q66 -76 166 -76q96 0 164 58q59 51 78.5 120.5t19.5 225.5v501h178v-1042h-161v125q-55 -84 -115.5 -117t-155.5 -33q-82 0 -137 29t-113 102v-514h-178z" />
<glyph unicode="&#xb6;" horiz-adv-x="1101" d="M-2 1061q0 125 58.5 222t162.5 147q104 47 252 47h633v-185h-143v-1700h-170v1700h-218v-1700h-170v1055q-188 10 -296.5 122t-108.5 292z" />
<glyph unicode="&#xb7;" horiz-adv-x="555" d="M178 444v258h199v-258h-199z" />
<glyph unicode="&#xb8;" horiz-adv-x="681" d="M123 -483l12 116q74 -4 92 -4q162 0 162 76q0 31 -29.5 46.5t-55 17.5t-71.5 2l52 178h135l-35 -107q82 -10 127 -50t45 -101q0 -84 -80 -135.5t-209 -51.5q-84 1 -145 13z" />
<glyph unicode="&#xb9;" horiz-adv-x="661" d="M197 1255v101q113 72 178 170h90v-752h-123v580q-75 -68 -145 -99z" />
<glyph unicode="&#xba;" horiz-adv-x="768" d="M86 1180q0 145 83 238t214 93t215 -93t84 -238q0 -154 -82 -248t-215 -94t-216 95t-83 247zM201 1178q0 -248 194 -248q80 0 127 65.5t47 178.5q0 115 -49 180t-135 65q-88 0 -136 -62t-48 -179z" />
<glyph unicode="&#xbb;" horiz-adv-x="980" d="M55 72l271 497l-271 498h178l271 -500l-271 -495h-178zM477 72l271 497l-271 498h178l271 -500l-271 -495h-178z" />
<glyph unicode="&#xbc;" horiz-adv-x="1748" d="M115 -346l1392 1829h129l-1388 -1829h-133zM213 1186v104q78 49 123 90t84 103h106v-846h-143v639q-72 -63 -170 -90zM999 2l349 494h133v-541h98v-121h-98v-182h-138v182h-344v168zM1104 -45h242v346z" />
<glyph unicode="&#xbd;" horiz-adv-x="1748" d="M119 -346l1382 1827h131l-1380 -1827h-133zM211 1192v104q72 39 116 79t89 106h104v-842h-139v639q-94 -78 -170 -86zM1094 -328q2 57 11 95t53 99.5t124 123.5q102 78 135 127t45 143q-6 137 -116 137q-53 0 -84 -34.5t-31 -92.5q0 -33 18 -86l-110 -69q-41 92 -41 151 q0 102 71.5 166t190.5 64q109 0 182.5 -71t73.5 -175q0 -72 -39 -136.5t-74 -94t-98 -76.5q-111 -80 -162 -146h361v-125h-510z" />
<glyph unicode="&#xbe;" horiz-adv-x="1748" d="M113 856q0 35 20 96l133 -53q-10 -33 -10 -53q0 -49 29.5 -79t81 -30t80 36t28.5 97q0 90 -43 127t-151 41v99q180 -4 180 123q0 57 -25.5 89.5t-73.5 32.5q-35 0 -61.5 -22.5t-26.5 -50.5q0 -18 5 -33l-127 -47q-12 49 -13 80q0 74 65.5 123t166.5 49q109 0 174 -56.5 t65 -148.5q0 -66 -29.5 -108t-99.5 -81q154 -59 154 -206q0 -104 -76 -174t-192 -70q-104 0 -179 64.5t-75 154.5zM119 -346l1388 1827h129l-1384 -1827h-133zM999 0l349 496h133v-541h98v-121h-98v-182h-135v180h-347v168zM1106 -45h240v342z" />
<glyph unicode="&#xbf;" horiz-adv-x="1087" d="M135 6q0 117 54.5 212t187.5 210q80 70 102.5 117t24.5 141h153q0 -115 -20.5 -182.5t-49 -103t-108.5 -109.5q-152 -139 -151 -279q0 -100 65.5 -167.5t161.5 -67.5q231 0 231 336l166 -88q-6 -109 -31.5 -175.5t-82.5 -123.5q-113 -117 -299 -117q-174 0 -289 113.5 t-115 283.5zM483 881v256h199v-256h-199z" />
<glyph unicode="&#xc0;" horiz-adv-x="1748" d="M139 0l647 1477h181l645 -1477h-205l-158 356h-745l-158 -356h-207zM582 539h587l-292 673zM592 1864h239l136 -279h-146z" />
<glyph unicode="&#xc1;" horiz-adv-x="1748" d="M139 0l647 1477h181l645 -1477h-205l-158 356h-745l-158 -356h-207zM582 539h587l-292 673zM786 1585l134 279h235l-219 -279h-150z" />
<glyph unicode="&#xc2;" horiz-adv-x="1748" d="M139 0l647 1477h181l645 -1477h-205l-158 356h-745l-158 -356h-207zM559 1585l217 279h191l225 -279h-203l-110 170l-113 -170h-207zM582 539h587l-292 673z" />
<glyph unicode="&#xc3;" horiz-adv-x="1748" d="M139 0l647 1477h181l645 -1477h-205l-158 356h-745l-158 -356h-207zM541 1610q-2 106 58 166.5t149 60.5q61 0 151 -47l29 -14q49 -23 80 -23q33 0 49 19.5t22 66.5h131q-2 -106 -53 -166.5t-139 -60.5q-66 0 -152 47l-37 20q-47 25 -81 25q-33 0 -54.5 -24.5 t-19.5 -69.5h-133zM582 539h587l-292 673z" />
<glyph unicode="&#xc4;" horiz-adv-x="1748" d="M139 0l647 1477h181l645 -1477h-205l-158 356h-745l-158 -356h-207zM582 539h587l-292 673zM596 1604v204h186v-204h-186zM969 1604v204h186v-204h-186z" />
<glyph unicode="&#xc5;" horiz-adv-x="1748" d="M139 0l647 1477h181l645 -1477h-205l-158 356h-745l-158 -356h-207zM582 539h587l-292 673zM696 1729q0 74 54.5 126t130.5 52q72 0 124 -53.5t52 -129.5q0 -78 -52.5 -131t-128 -53t-128 55.5t-52.5 133.5zM774 1729q0 -47 30 -80t75 -33t75.5 31.5t30.5 76.5t-30.5 77 t-75.5 32q-43 0 -74 -30.5t-31 -73.5z" />
<glyph unicode="&#xc6;" horiz-adv-x="2197" d="M47 0l850 1477h1128l-63 -172h-674v-461h621v-172h-621v-502h680l55 -170h-936v358h-614l-207 -358h-219zM571 535h516v770h-75z" />
<glyph unicode="&#xc7;" horiz-adv-x="1536" d="M141 694q0 365 191.5 591t501.5 226q117 0 215 -32.5t155.5 -76.5t101.5 -100.5t60 -93.5t25 -65l-156 -133q-16 47 -28.5 75.5t-46.5 81t-70.5 82t-101 54t-142.5 24.5q-219 0 -353.5 -165t-134.5 -431q0 -158 40 -275.5t94.5 -177t127 -96.5t120.5 -45t94 -8 q182 0 315 129q57 55 108 160l140 -146q-63 -113 -129 -172q-158 -143 -406 -149l-33 -101q82 -10 127 -50t45 -101q0 -84 -79.5 -135t-208.5 -51q-84 0 -146 12l13 117q74 -4 92 -4q162 0 162 75q0 31 -30 46.5t-55.5 17.5t-70.5 2l51 176q-129 14 -232.5 66.5t-164 128 t-102.5 153.5t-59 163t-23.5 136t-6.5 92z" />
<glyph unicode="&#xc8;" d="M186 0v1477h920l-55 -174h-664v-453h608v-176h-608v-498h666l59 -176h-926zM340 1864h240l135 -279h-146z" />
<glyph unicode="&#xc9;" d="M186 0v1477h920l-55 -174h-664v-453h608v-176h-608v-498h666l59 -176h-926zM508 1585l133 279h236l-220 -279h-149z" />
<glyph unicode="&#xca;" d="M186 0v1477h920l-55 -174h-664v-453h608v-176h-608v-498h666l59 -176h-926zM313 1585l217 279h191l225 -279h-203l-110 170l-113 -170h-207z" />
<glyph unicode="&#xcb;" d="M186 0v1477h920l-55 -174h-664v-453h608v-176h-608v-498h666l59 -176h-926zM350 1604v204h187v-204h-187zM723 1604v204h186v-204h-186z" />
<glyph unicode="&#xcc;" horiz-adv-x="661" d="M47 1864h240l135 -279h-146zM229 0v1477h203v-1477h-203z" />
<glyph unicode="&#xcd;" horiz-adv-x="661" d="M227 1585l133 279h236l-219 -279h-150zM229 0v1477h203v-1477h-203z" />
<glyph unicode="&#xce;" horiz-adv-x="661" d="M14 1585l217 279h191l225 -279h-203l-110 170l-113 -170h-207zM229 0v1477h203v-1477h-203z" />
<glyph unicode="&#xcf;" horiz-adv-x="661" d="M51 1604v204h187v-204h-187zM229 0v1477h203v-1477h-203zM424 1604v204h186v-204h-186z" />
<glyph unicode="&#xd0;" horiz-adv-x="1642" d="M63 659v156h216v662h550q301 0 465 -164q221 -215 222 -574q0 -344 -176.5 -541.5t-485.5 -197.5h-575v659h-216zM481 182h367q213 0 332.5 145.5t119.5 401.5q0 311 -159 461q-109 106 -310 106h-350v-481h480v-156h-480v-477z" />
<glyph unicode="&#xd1;" horiz-adv-x="1536" d="M205 0v1477h272l651 -1151v1151h203v-1477h-241l-684 1204v-1204h-201zM455 1610q-2 106 58 166.5t149 60.5q61 0 151 -47l29 -14q49 -23 80 -23q33 0 49 19.5t22 66.5h131q-2 -106 -53 -166.5t-139 -60.5q-66 0 -152 47l-37 20q-47 25 -81 25q-33 0 -54.5 -24.5 t-19.5 -69.5h-133z" />
<glyph unicode="&#xd2;" horiz-adv-x="1642" d="M121 739q0 356 194.5 564t511.5 208q311 0 504 -212t193 -556q0 -193 -54.5 -341t-132 -230t-180 -135t-183.5 -69.5t-155 -16.5q-322 0 -510 211.5t-188 576.5zM336 725q0 -264 135 -430t350 -166q223 0 355.5 168t132.5 448q0 266 -131 426t-351 160 q-227 0 -359 -162.5t-132 -443.5zM553 1864h240l135 -279h-146z" />
<glyph unicode="&#xd3;" horiz-adv-x="1642" d="M121 739q0 356 194.5 564t511.5 208q311 0 504 -212t193 -556q0 -193 -54.5 -341t-132 -230t-180 -135t-183.5 -69.5t-155 -16.5q-322 0 -510 211.5t-188 576.5zM336 725q0 -264 135 -430t350 -166q223 0 355.5 168t132.5 448q0 266 -131 426t-351 160 q-227 0 -359 -162.5t-132 -443.5zM721 1585l133 279h236l-220 -279h-149z" />
<glyph unicode="&#xd4;" horiz-adv-x="1642" d="M121 739q0 356 194.5 564t511.5 208q311 0 504 -212t193 -556q0 -193 -54.5 -341t-132 -230t-180 -135t-183.5 -69.5t-155 -16.5q-322 0 -510 211.5t-188 576.5zM336 725q0 -264 135 -430t350 -166q223 0 355.5 168t132.5 448q0 266 -131 426t-351 160 q-227 0 -359 -162.5t-132 -443.5zM506 1585l217 279h190l226 -279h-203l-111 170l-112 -170h-207z" />
<glyph unicode="&#xd5;" horiz-adv-x="1642" d="M121 739q0 356 194.5 564t511.5 208q311 0 504 -212t193 -556q0 -193 -54.5 -341t-132 -230t-180 -135t-183.5 -69.5t-155 -16.5q-322 0 -510 211.5t-188 576.5zM336 725q0 -264 135 -430t350 -166q223 0 355.5 168t132.5 448q0 266 -131 426t-351 160 q-227 0 -359 -162.5t-132 -443.5zM487 1610q-2 106 58.5 166.5t148.5 60.5q61 0 152 -47l28 -14q49 -23 80 -23q33 0 49.5 19.5t22.5 66.5h131q-2 -106 -53 -166.5t-139 -60.5q-66 0 -152 47l-37 20q-47 25 -82 25q-33 0 -54.5 -24.5t-18.5 -69.5h-134z" />
<glyph unicode="&#xd6;" horiz-adv-x="1642" d="M121 739q0 356 194.5 564t511.5 208q311 0 504 -212t193 -556q0 -193 -54.5 -341t-132 -230t-180 -135t-183.5 -69.5t-155 -16.5q-322 0 -510 211.5t-188 576.5zM336 725q0 -264 135 -430t350 -166q223 0 355.5 168t132.5 448q0 266 -131 426t-351 160 q-227 0 -359 -162.5t-132 -443.5zM543 1604v204h186v-204h-186zM915 1604v204h187v-204h-187z" />
<glyph unicode="&#xd7;" horiz-adv-x="1368" d="M176 1063l111 111l397 -398l397 398l113 -111l-397 -397l393 -396l-111 -110l-393 395l-397 -395l-111 110l395 396z" />
<glyph unicode="&#xd8;" horiz-adv-x="1642" d="M119 55l145 168q-141 201 -141 516q0 356 194.5 564t511.5 208q258 0 435 -145l129 147l120 -108l-137 -158q150 -201 150 -504q0 -193 -54.5 -341t-132 -230t-180 -135t-183.5 -69.5t-155 -16.5q-270 0 -444 149l-133 -153zM338 725q0 -197 74 -334l723 826 q-125 115 -306 114q-227 0 -359 -162.5t-132 -443.5zM510 254q129 -125 313 -125q223 0 355.5 168t132.5 448q0 199 -76 340z" />
<glyph unicode="&#xd9;" horiz-adv-x="1536" d="M205 444v1033h203v-1014q0 -158 95 -242t275 -84q80 0 155 25.5t118 70.5q78 78 77 273v971h203v-1002q0 -246 -125 -373q-147 -152 -440 -151q-262 0 -411.5 131t-149.5 362zM500 1864h239l135 -279h-145z" />
<glyph unicode="&#xda;" horiz-adv-x="1536" d="M205 444v1033h203v-1014q0 -158 95 -242t275 -84q80 0 155 25.5t118 70.5q78 78 77 273v971h203v-1002q0 -246 -125 -373q-147 -152 -440 -151q-262 0 -411.5 131t-149.5 362zM668 1585l133 279h235l-219 -279h-149z" />
<glyph unicode="&#xdb;" horiz-adv-x="1536" d="M205 444v1033h203v-1014q0 -158 95 -242t275 -84q80 0 155 25.5t118 70.5q78 78 77 273v971h203v-1002q0 -246 -125 -373q-147 -152 -440 -151q-262 0 -411.5 131t-149.5 362zM453 1585l217 279h190l225 -279h-202l-111 170l-113 -170h-206z" />
<glyph unicode="&#xdc;" horiz-adv-x="1536" d="M205 444v1033h203v-1014q0 -158 95 -242t275 -84q80 0 155 25.5t118 70.5q78 78 77 273v971h203v-1002q0 -246 -125 -373q-147 -152 -440 -151q-262 0 -411.5 131t-149.5 362zM489 1604v204h187v-204h-187zM862 1604v204h187v-204h-187z" />
<glyph unicode="&#xdd;" horiz-adv-x="1429" d="M84 1477h227l396 -666l413 666h228l-539 -871v-606h-203v598zM614 1585l134 279h235l-219 -279h-150z" />
<glyph unicode="&#xde;" horiz-adv-x="1429" d="M215 0v1477h201v-299h395q215 0 350 -122t135 -317q0 -205 -141 -321.5t-387 -116.5h-352v-301h-201zM416 477h299q182 0 268 62.5t86 193.5q0 266 -330 266h-323v-522z" />
<glyph unicode="&#xdf;" d="M156 0v1116q0 184 109.5 286.5t307.5 102.5q197 0 321 -100t124 -258q0 -236 -217 -305q51 -23 84 -44.5t80 -67.5t71.5 -124t24.5 -182q0 -203 -96.5 -326t-253.5 -123q-201 0 -273 185q-20 59 -20 164h139q10 -205 148 -205q88 0 126.5 71.5t38.5 229.5q0 86 -10 144.5 t-41 108.5t-90 74.5t-154 26.5v141q137 2 196.5 55.5t59.5 168.5q0 221 -253 221q-139 0 -195.5 -64.5t-56.5 -226.5v-1069h-170z" />
<glyph unicode="&#xe0;" horiz-adv-x="1087" d="M92 299q0 127 92 223q102 106 336 129q111 12 145.5 25.5t82.5 62.5q-2 92 -41 123t-152 31q-117 0 -182.5 -37t-100.5 -123l-141 76q18 47 37.5 76.5t63.5 70.5t124 62.5t191 21.5q90 0 156.5 -14t105.5 -42t63.5 -54.5t33.5 -67.5t11.5 -62.5t2.5 -58.5l-2 -495 q0 -94 12 -114.5t67 -22.5v-117q-74 -23 -108 -23q-47 0 -78 17.5t-44 50.5t-17.5 61.5t-4.5 69.5q-43 -53 -76.5 -88t-108.5 -73t-154 -38q-133 0 -223.5 94.5t-90.5 235.5zM272 297q0 -84 53.5 -136t137.5 -52q109 0 194 81q51 49 71 105.5t20 150.5v164q-53 -41 -87 -54 t-122 -30q-156 -27 -215 -98q-52 -57 -52 -131zM274 1399h240l135 -279h-145z" />
<glyph unicode="&#xe1;" horiz-adv-x="1087" d="M92 299q0 127 92 223q102 106 336 129q111 12 145.5 25.5t82.5 62.5q-2 92 -41 123t-152 31q-117 0 -182.5 -37t-100.5 -123l-141 76q18 47 37.5 76.5t63.5 70.5t124 62.5t191 21.5q90 0 156.5 -14t105.5 -42t63.5 -54.5t33.5 -67.5t11.5 -62.5t2.5 -58.5l-2 -495 q0 -94 12 -114.5t67 -22.5v-117q-74 -23 -108 -23q-47 0 -78 17.5t-44 50.5t-17.5 61.5t-4.5 69.5q-43 -53 -76.5 -88t-108.5 -73t-154 -38q-133 0 -223.5 94.5t-90.5 235.5zM272 297q0 -84 53.5 -136t137.5 -52q109 0 194 81q51 49 71 105.5t20 150.5v164q-53 -41 -87 -54 t-122 -30q-156 -27 -215 -98q-52 -57 -52 -131zM442 1120l133 279h236l-219 -279h-150z" />
<glyph unicode="&#xe2;" horiz-adv-x="1087" d="M92 299q0 127 92 223q102 106 336 129q111 12 145.5 25.5t82.5 62.5q-2 92 -41 123t-152 31q-117 0 -182.5 -37t-100.5 -123l-141 76q18 47 37.5 76.5t63.5 70.5t124 62.5t191 21.5q90 0 156.5 -14t105.5 -42t63.5 -54.5t33.5 -67.5t11.5 -62.5t2.5 -58.5l-2 -495 q0 -94 12 -114.5t67 -22.5v-117q-74 -23 -108 -23q-47 0 -78 17.5t-44 50.5t-17.5 61.5t-4.5 69.5q-43 -53 -76.5 -88t-108.5 -73t-154 -38q-133 0 -223.5 94.5t-90.5 235.5zM227 1120l217 279h191l225 -279h-203l-110 170l-113 -170h-207zM272 297q0 -84 53.5 -136 t137.5 -52q109 0 194 81q51 49 71 105.5t20 150.5v164q-53 -41 -87 -54t-122 -30q-156 -27 -215 -98q-52 -57 -52 -131z" />
<glyph unicode="&#xe3;" horiz-adv-x="1087" d="M92 299q0 127 92 223q102 106 336 129q111 12 145.5 25.5t82.5 62.5q-2 92 -41 123t-152 31q-117 0 -182.5 -37t-100.5 -123l-141 76q18 47 37.5 76.5t63.5 70.5t124 62.5t191 21.5q90 0 156.5 -14t105.5 -42t63.5 -54.5t33.5 -67.5t11.5 -62.5t2.5 -58.5l-2 -495 q0 -94 12 -114.5t67 -22.5v-117q-74 -23 -108 -23q-47 0 -78 17.5t-44 50.5t-17.5 61.5t-4.5 69.5q-43 -53 -76.5 -88t-108.5 -73t-154 -38q-133 0 -223.5 94.5t-90.5 235.5zM209 1145q-2 106 58.5 166.5t148.5 60.5q61 0 151 -47l29 -14q49 -23 80 -23q33 0 49 19.5 t23 66.5h131q-2 -106 -53.5 -166.5t-139.5 -60.5q-66 0 -151 47l-37 20q-47 25 -82 25q-33 0 -54.5 -24.5t-19.5 -69.5h-133zM272 297q0 -84 53.5 -136t137.5 -52q109 0 194 81q51 49 71 105.5t20 150.5v164q-53 -41 -87 -54t-122 -30q-156 -27 -215 -98q-52 -57 -52 -131z " />
<glyph unicode="&#xe4;" horiz-adv-x="1087" d="M92 299q0 127 92 223q102 106 336 129q111 12 145.5 25.5t82.5 62.5q-2 92 -41 123t-152 31q-117 0 -182.5 -37t-100.5 -123l-141 76q18 47 37.5 76.5t63.5 70.5t124 62.5t191 21.5q90 0 156.5 -14t105.5 -42t63.5 -54.5t33.5 -67.5t11.5 -62.5t2.5 -58.5l-2 -495 q0 -94 12 -114.5t67 -22.5v-117q-74 -23 -108 -23q-47 0 -78 17.5t-44 50.5t-17.5 61.5t-4.5 69.5q-43 -53 -76.5 -88t-108.5 -73t-154 -38q-133 0 -223.5 94.5t-90.5 235.5zM264 1139v204h187v-204h-187zM272 297q0 -84 53.5 -136t137.5 -52q109 0 194 81q51 49 71 105.5 t20 150.5v164q-53 -41 -87 -54t-122 -30q-156 -27 -215 -98q-52 -57 -52 -131zM637 1139v204h186v-204h-186z" />
<glyph unicode="&#xe5;" horiz-adv-x="1087" d="M92 299q0 127 92 223q102 106 336 129q111 12 145.5 25.5t82.5 62.5q-2 92 -41 123t-152 31q-117 0 -182.5 -37t-100.5 -123l-141 76q18 47 37.5 76.5t63.5 70.5t124 62.5t191 21.5q90 0 156.5 -14t105.5 -42t63.5 -54.5t33.5 -67.5t11.5 -62.5t2.5 -58.5l-2 -495 q0 -94 12 -114.5t67 -22.5v-117q-74 -23 -108 -23q-47 0 -78 17.5t-44 50.5t-17.5 61.5t-4.5 69.5q-43 -53 -76.5 -88t-108.5 -73t-154 -38q-133 0 -223.5 94.5t-90.5 235.5zM272 297q0 -84 53.5 -136t137.5 -52q109 0 194 81q51 49 71 105.5t20 150.5v164q-53 -41 -87 -54 t-122 -30q-156 -27 -215 -98q-52 -57 -52 -131zM365 1264q0 74 54 126t130 52q72 0 124 -53.5t52 -128.5q0 -78 -52 -131.5t-128 -53.5t-128 55.5t-52 133.5zM442 1264q0 -47 30 -80t75 -33t75.5 31.5t30.5 77t-30.5 77t-75.5 31.5q-43 0 -74 -30.5t-31 -73.5z" />
<glyph unicode="&#xe6;" horiz-adv-x="1748" d="M106 297q0 131 89 223q100 100 323 123q115 12 154 27.5t90 66.5q4 84 -36 124t-157 40q-219 0 -282 -164l-144 74q16 43 33 71.5t60 70.5t125.5 64.5t199.5 22.5q135 0 208 -27.5t130 -101.5q139 131 315 131q186 0 308.5 -141t122.5 -360q0 -43 -5 -86h-702 q8 -182 96 -271q72 -76 183 -75q207 0 270 221l141 -68q-131 -293 -420 -293q-143 0 -237 66.5t-162 206.5q-37 -55 -62.5 -89t-75.5 -83.5t-112.5 -75t-134.5 -25.5q-141 0 -229.5 91.5t-88.5 236.5zM287 293q0 -82 52 -133t138 -51q109 0 193 77q92 90 92 258v164 q-59 -43 -97 -57t-124 -31q-119 -20 -186.5 -71.5t-67.5 -155.5zM940 592h524q-4 88 -31.5 152.5t-58.5 94t-74 46t-61 18.5t-37 2q-162 0 -229 -155q-25 -56 -33 -158z" />
<glyph unicode="&#xe7;" horiz-adv-x="1087" d="M111 512q0 229 132 378.5t337 149.5q94 0 168.5 -31.5t116.5 -80.5t64.5 -92t31.5 -82l-142 -68q-57 209 -246 209q-137 0 -210.5 -100.5t-73.5 -286.5q0 -215 98 -315q82 -86 201 -87q195 0 260 213l129 -69q-6 -33 -27.5 -74t-62.5 -88t-117 -81t-172 -36l-31 -92 q82 -10 127 -50t45 -101q0 -84 -79.5 -135.5t-208.5 -51.5q-84 0 -146 13l12 116q74 -4 93 -4q162 0 161 76q0 31 -29.5 46t-55 17t-70.5 2l51 177q-162 39 -259 181t-97 347z" />
<glyph unicode="&#xe8;" horiz-adv-x="1085" d="M100 503.5q0 237.5 127 386t330 148.5q186 0 308 -137t122 -344q0 -23 -4 -108h-704q4 -96 33.5 -166t62.5 -103t79 -51t66.5 -20.5t42.5 -2.5q68 0 120 24t83 67t43 67.5t27 63.5l137 -68q-47 -104 -107 -164q-131 -127 -317 -127q-201 0 -325 148.5t-124 386zM274 1399 h240l135 -279h-145zM283 586h526q-4 88 -31.5 152.5t-58.5 94t-73 46t-60.5 18.5t-36.5 2q-121 0 -189.5 -81.5t-76.5 -231.5z" />
<glyph unicode="&#xe9;" horiz-adv-x="1085" d="M100 503.5q0 237.5 127 386t330 148.5q186 0 308 -137t122 -344q0 -23 -4 -108h-704q4 -96 33.5 -166t62.5 -103t79 -51t66.5 -20.5t42.5 -2.5q68 0 120 24t83 67t43 67.5t27 63.5l137 -68q-47 -104 -107 -164q-131 -127 -317 -127q-201 0 -325 148.5t-124 386zM283 586 h526q-4 88 -31.5 152.5t-58.5 94t-73 46t-60.5 18.5t-36.5 2q-121 0 -189.5 -81.5t-76.5 -231.5zM442 1120l133 279h236l-219 -279h-150z" />
<glyph unicode="&#xea;" horiz-adv-x="1085" d="M100 503.5q0 237.5 127 386t330 148.5q186 0 308 -137t122 -344q0 -23 -4 -108h-704q4 -96 33.5 -166t62.5 -103t79 -51t66.5 -20.5t42.5 -2.5q68 0 120 24t83 67t43 67.5t27 63.5l137 -68q-47 -104 -107 -164q-131 -127 -317 -127q-201 0 -325 148.5t-124 386zM227 1120 l217 279h191l225 -279h-203l-110 170l-113 -170h-207zM283 586h526q-4 88 -31.5 152.5t-58.5 94t-73 46t-60.5 18.5t-36.5 2q-121 0 -189.5 -81.5t-76.5 -231.5z" />
<glyph unicode="&#xeb;" horiz-adv-x="1085" d="M100 503.5q0 237.5 127 386t330 148.5q186 0 308 -137t122 -344q0 -23 -4 -108h-704q4 -96 33.5 -166t62.5 -103t79 -51t66.5 -20.5t42.5 -2.5q68 0 120 24t83 67t43 67.5t27 63.5l137 -68q-47 -104 -107 -164q-131 -127 -317 -127q-201 0 -325 148.5t-124 386zM264 1139 v204h187v-204h-187zM283 586h526q-4 88 -31.5 152.5t-58.5 94t-73 46t-60.5 18.5t-36.5 2q-121 0 -189.5 -81.5t-76.5 -231.5zM637 1139v204h186v-204h-186z" />
<glyph unicode="&#xec;" horiz-adv-x="555" d="M-10 1399h239l136 -279h-146zM193 0v1012h172v-1012h-172z" />
<glyph unicode="&#xed;" horiz-adv-x="555" d="M193 0v1012h172v-1012h-172zM193 1120l133 279h235l-219 -279h-149z" />
<glyph unicode="&#xee;" horiz-adv-x="555" d="M-39 1120l217 279h191l225 -279h-203l-110 170l-113 -170h-207zM193 0v1012h172v-1012h-172z" />
<glyph unicode="&#xef;" horiz-adv-x="555" d="M-2 1139v204h186v-204h-186zM193 0v1012h172v-1012h-172zM371 1139v204h186v-204h-186z" />
<glyph unicode="&#xf0;" d="M135 508q0 227 131 380.5t324 153.5q104 0 227 -75q-8 43 -59 114.5t-129 141.5l-283 -123l-45 104l225 99h-2q-76 49 -159 81l65 99q117 -27 250 -115l258 111l45 -105l-203 -86q63 -59 123 -135q180 -236 180 -600q0 -307 -153 -455q-59 -57 -146.5 -92t-173.5 -35 q-209 0 -342 150.5t-133 386.5zM317 510q0 -186 80 -288.5t226 -102.5q127 0 203.5 107.5t76.5 285.5q0 180 -80 282.5t-219 102.5q-137 0 -212 -101.5t-75 -285.5z" />
<glyph unicode="&#xf1;" d="M205 0v1012h172v-181q141 207 330 207q137 0 222 -93t85 -243v-702h-172v651q0 113 -55.5 176.5t-153.5 63.5q-113 0 -184.5 -70.5t-71.5 -181.5v-639h-172zM274 1145q-2 106 58.5 166.5t148.5 60.5q61 0 152 -47l29 -14q49 -23 79 -23q33 0 49.5 19.5t22.5 66.5h131 q-2 -106 -53 -166.5t-139 -60.5q-66 0 -152 47l-37 20q-47 25 -82 25q-33 0 -54 -24.5t-19 -69.5h-134z" />
<glyph unicode="&#xf2;" d="M137 510q0 231 131 379.5t336 148.5q209 0 342 -146.5t133 -375.5q0 -250 -130 -398.5t-347 -148.5q-207 0 -336 150.5t-129 390.5zM317 500q0 -182 79 -282.5t222 -100.5q131 0 206 103.5t75 283.5q0 197 -81 293t-216 96q-133 0 -209 -101.5t-76 -291.5zM340 1399h240 l135 -279h-146z" />
<glyph unicode="&#xf3;" d="M137 510q0 231 131 379.5t336 148.5q209 0 342 -146.5t133 -375.5q0 -250 -130 -398.5t-347 -148.5q-207 0 -336 150.5t-129 390.5zM317 500q0 -182 79 -282.5t222 -100.5q131 0 206 103.5t75 283.5q0 197 -81 293t-216 96q-133 0 -209 -101.5t-76 -291.5zM508 1120 l133 279h236l-220 -279h-149z" />
<glyph unicode="&#xf4;" d="M137 510q0 231 131 379.5t336 148.5q209 0 342 -146.5t133 -375.5q0 -250 -130 -398.5t-347 -148.5q-207 0 -336 150.5t-129 390.5zM293 1120l217 279h190l226 -279h-203l-111 170l-112 -170h-207zM317 500q0 -182 79 -282.5t222 -100.5q131 0 206 103.5t75 283.5 q0 197 -81 293t-216 96q-133 0 -209 -101.5t-76 -291.5z" />
<glyph unicode="&#xf5;" d="M137 510q0 231 131 379.5t336 148.5q209 0 342 -146.5t133 -375.5q0 -250 -130 -398.5t-347 -148.5q-207 0 -336 150.5t-129 390.5zM274 1145q-2 106 58.5 166.5t148.5 60.5q61 0 152 -47l29 -14q49 -23 79 -23q33 0 49.5 19.5t22.5 66.5h131q-2 -106 -53 -166.5 t-139 -60.5q-66 0 -152 47l-37 20q-47 25 -82 25q-33 0 -54 -24.5t-19 -69.5h-134zM317 500q0 -182 79 -282.5t222 -100.5q131 0 206 103.5t75 283.5q0 197 -81 293t-216 96q-133 0 -209 -101.5t-76 -291.5z" />
<glyph unicode="&#xf6;" d="M137 510q0 231 131 379.5t336 148.5q209 0 342 -146.5t133 -375.5q0 -250 -130 -398.5t-347 -148.5q-207 0 -336 150.5t-129 390.5zM317 500q0 -182 79 -282.5t222 -100.5q131 0 206 103.5t75 283.5q0 197 -81 293t-216 96q-133 0 -209 -101.5t-76 -291.5zM330 1139v204 h186v-204h-186zM702 1139v204h187v-204h-187z" />
<glyph unicode="&#xf7;" horiz-adv-x="1368" d="M135 588v157h1098v-157h-1098zM582 256q0 41 29.5 69.5t70.5 28.5t69.5 -27.5t28.5 -68.5t-28.5 -70.5t-69.5 -29.5t-70.5 28.5t-29.5 69.5zM582 1081q0 39 28.5 67t69.5 28t69.5 -29t28.5 -70t-28.5 -69.5t-67.5 -28.5q-41 0 -70.5 29.5t-29.5 72.5z" />
<glyph unicode="&#xf8;" d="M104 35l125 143q-88 139 -88 332q0 231 131 379.5t336 148.5q164 0 285 -94l115 131l106 -98l-123 -141q92 -131 92 -320q0 -250 -130 -398.5t-347 -148.5q-164 0 -280 99l-113 -129zM322 500q0 -98 26 -185l445 512q-72 66 -187 66q-133 0 -208.5 -101.5t-75.5 -291.5z M430 186q72 -70 193 -69q131 0 205.5 103.5t74.5 283.5q0 119 -31 194z" />
<glyph unicode="&#xf9;" d="M203 299v713h172v-637q0 -256 203 -256q109 0 186.5 78.5t77.5 191.5v623h172v-1012h-176v178q-135 -211 -318 -211q-143 0 -230 91t-87 241zM340 1399h240l135 -279h-146z" />
<glyph unicode="&#xfa;" d="M203 299v713h172v-637q0 -256 203 -256q109 0 186.5 78.5t77.5 191.5v623h172v-1012h-176v178q-135 -211 -318 -211q-143 0 -230 91t-87 241zM508 1120l133 279h236l-220 -279h-149z" />
<glyph unicode="&#xfb;" d="M203 299v713h172v-637q0 -256 203 -256q109 0 186.5 78.5t77.5 191.5v623h172v-1012h-176v178q-135 -211 -318 -211q-143 0 -230 91t-87 241zM293 1120l217 279h190l226 -279h-203l-111 170l-112 -170h-207z" />
<glyph unicode="&#xfc;" d="M203 299v713h172v-637q0 -256 203 -256q109 0 186.5 78.5t77.5 191.5v623h172v-1012h-176v178q-135 -211 -318 -211q-143 0 -230 91t-87 241zM330 1139v204h186v-204h-186zM702 1139v204h187v-204h-187z" />
<glyph unicode="&#xfd;" horiz-adv-x="980" d="M78 1012h162l264 -791l235 791h164l-325 -1051l-17 -57q-20 -68 -31.5 -99.5t-36 -76.5t-54 -65.5t-80 -37t-117.5 -16.5q-43 0 -117 8v143q72 -12 113 -12q82 0 115.5 40t78.5 187zM389 1120l133 279h236l-219 -279h-150z" />
<glyph unicode="&#xfe;" d="M221 -391v1868h164v-711q23 57 43.5 93t59 81t98 68.5t137.5 23.5q166 0 266.5 -142t100.5 -378q0 -242 -105.5 -390.5t-277.5 -148.5q-123 0 -190.5 66.5t-129.5 191.5v-622h-166zM385 500q0 -174 77 -278.5t206 -104.5q119 0 181 102.5t62 292.5q0 180 -62.5 277.5 t-176.5 97.5q-135 0 -211 -102.5t-76 -284.5z" />
<glyph unicode="&#xff;" horiz-adv-x="980" d="M78 1012h162l264 -791l235 791h164l-325 -1051l-17 -57q-20 -68 -31.5 -99.5t-36 -76.5t-54 -65.5t-80 -37t-117.5 -16.5q-43 0 -117 8v143q72 -12 113 -12q82 0 115.5 40t78.5 187zM211 1139v204h186v-204h-186zM584 1139v204h186v-204h-186z" />
<glyph unicode="&#x152;" horiz-adv-x="2197" d="M98 721q0 360 198 567t513 197l72 -4l143 -4h1071l-61 -170h-658v-461h604v-172h-604v-500h662l61 -172h-962q-25 0 -172 -4q-152 -4 -179 -4q-317 0 -502.5 196.5t-185.5 530.5zM332 733q0 -295 151 -450q68 -70 150 -93.5t252 -23.5l188 4l101 4v1133q-154 0 -197 2 h-70q-170 0 -265 -28t-161 -95q-149 -156 -149 -453z" />
<glyph unicode="&#x153;" horiz-adv-x="1746" d="M84 492q0 240 127 393t324 153q98 0 179 -36.5t112.5 -68.5t76.5 -87q49 70 94 106q111 86 256 86q172 0 292 -138t120 -335q0 -45 -6 -116h-666q4 -92 29 -160t54.5 -101.5t69.5 -53t62.5 -22.5t46.5 -3q188 0 252 221l140 -68q-23 -51 -44.5 -86t-69.5 -90t-125 -86 t-177 -31q-90 0 -164 39t-101.5 73t-66.5 89q-45 -57 -85 -95t-113.5 -72t-157.5 -34q-195 0 -327 150t-132 373zM266 506q0 -180 75 -283.5t204 -103.5q125 0 194.5 105.5t69.5 291.5q0 174 -71.5 275.5t-196.5 101.5q-127 0 -201 -103.5t-74 -283.5zM999 588h486 q-2 145 -67.5 231t-174.5 86q-29 0 -62.5 -10t-77.5 -39t-74 -98.5t-30 -169.5z" />
<glyph unicode="&#x178;" horiz-adv-x="1429" d="M84 1477h227l396 -666l413 666h228l-539 -871v-606h-203v598zM436 1604v204h187v-204h-187zM809 1604v204h186v-204h-186z" />
<glyph unicode="&#x2c6;" horiz-adv-x="681" d="M25 1120l217 279h190l225 -279h-202l-111 170l-113 -170h-206z" />
<glyph unicode="&#x2dc;" horiz-adv-x="681" d="M6 1145q-2 106 58.5 166.5t148.5 60.5q61 0 152 -47l28 -14q49 -23 80 -23q33 0 49.5 19.5t22.5 66.5h131q-2 -106 -53.5 -166.5t-139.5 -60.5q-66 0 -151 47l-37 20q-47 25 -82 25q-33 0 -54.5 -24.5t-19.5 -69.5h-133z" />
<glyph unicode="&#x2000;" horiz-adv-x="952" />
<glyph unicode="&#x2001;" horiz-adv-x="1906" />
<glyph unicode="&#x2002;" horiz-adv-x="952" />
<glyph unicode="&#x2003;" horiz-adv-x="1906" />
<glyph unicode="&#x2004;" horiz-adv-x="634" />
<glyph unicode="&#x2005;" horiz-adv-x="475" />
<glyph unicode="&#x2006;" horiz-adv-x="317" />
<glyph unicode="&#x2007;" horiz-adv-x="317" />
<glyph unicode="&#x2008;" horiz-adv-x="237" />
<glyph unicode="&#x2009;" horiz-adv-x="380" />
<glyph unicode="&#x200a;" horiz-adv-x="104" />
<glyph unicode="&#x2010;" horiz-adv-x="768" d="M102 424v168h566v-168h-566z" />
<glyph unicode="&#x2011;" horiz-adv-x="768" d="M102 424v168h566v-168h-566z" />
<glyph unicode="&#x2012;" horiz-adv-x="768" d="M102 424v168h566v-168h-566z" />
<glyph unicode="&#x2013;" horiz-adv-x="1024" d="M-10 422v182h1044v-182h-1044z" />
<glyph unicode="&#x2014;" horiz-adv-x="2048" d="M-10 422v182h2066v-182h-2066z" />
<glyph unicode="&#x2018;" horiz-adv-x="555" d="M180 928v225q0 197 127 324l58 -60q-41 -68 -54.5 -109.5t-15.5 -119.5h82v-260h-197z" />
<glyph unicode="&#x2019;" horiz-adv-x="555" d="M176 1217v260h201v-287q0 -66 -34 -137.5t-89 -124.5l-61 63q37 61 48 103.5t13 122.5h-78z" />
<glyph unicode="&#x201a;" horiz-adv-x="555" d="M176 -248q84 96 80 248h-76v262h201v-272q0 -213 -166 -318z" />
<glyph unicode="&#x201c;" horiz-adv-x="980" d="M164 934v215q0 203 127 328l63 -56q-45 -68 -58 -111.5t-13 -119.5h82v-256h-201zM618 934v221q0 176 134 322l57 -54q-63 -100 -66 -235h74v-254h-199z" />
<glyph unicode="&#x201d;" horiz-adv-x="980" d="M164 1221v256h201v-244q0 -170 -134 -299l-59 55q39 57 52.5 103.5t15.5 128.5h-76zM616 1221v256h201v-230q0 -176 -127 -313l-59 57q39 63 52 107.5t17 122.5h-84z" />
<glyph unicode="&#x201e;" horiz-adv-x="980" d="M164 -248q53 70 68.5 118t11.5 130h-76v262h201v-272q0 -201 -164 -318zM616 -248q55 72 68.5 119t11.5 129h-75v262h198v-272q0 -211 -164 -318z" />
<glyph unicode="&#x2022;" horiz-adv-x="716" d="M104 717q0 106 75 180t179.5 74t179 -74t74.5 -180q0 -104 -74.5 -178t-179 -74t-179.5 74t-75 178z" />
<glyph unicode="&#x2026;" horiz-adv-x="1748" d="M190 0v260h201v-260h-201zM774 0v258h201v-258h-201zM1358 0v258h201v-258h-201z" />
<glyph unicode="&#x202f;" horiz-adv-x="380" />
<glyph unicode="&#x2039;" horiz-adv-x="661" d="M106 567l271 500h178l-270 -498l270 -497h-178z" />
<glyph unicode="&#x203a;" horiz-adv-x="661" d="M106 72l271 497l-271 498h179l270 -500l-270 -495h-179z" />
<glyph unicode="&#x205f;" horiz-adv-x="475" />
<glyph unicode="&#x20ac;" horiz-adv-x="1153" d="M37 504l26 127h121v26q0 35 4 97h-147l27 127h135q41 248 166 391t303 143q102 0 182 -39t122 -96t62.5 -101t26.5 -79l-131 -56q-25 90 -88.5 159t-165.5 69q-119 0 -195.5 -105.5t-101.5 -285.5h631l-27 -127h-614q0 -10 -1 -31t-1 -31t1 -30.5t1 -30.5h555l-27 -127 h-518q16 -121 54 -205t84 -121t82 -51t69 -14q98 0 168.5 65.5t109.5 151.5l119 -84q-121 -279 -395 -279q-123 0 -215 52.5t-143.5 140.5t-78 169t-40.5 175h-160z" />
<glyph unicode="&#x2122;" horiz-adv-x="2048" d="M244 1356v121h665v-121h-266v-694h-135v694h-264zM1001 662v815h201l205 -652l199 652h196v-815h-125v684l-209 -684h-122l-220 694v-694h-125z" />
<glyph unicode="&#xe000;" horiz-adv-x="1010" d="M0 1010h1010v-1010h-1010v1010z" />
<glyph unicode="&#xfb01;" d="M82 868v144h162q2 170 20.5 245.5t71.5 133.5q106 109 313 108q100 0 175 -24.5t114 -55t66.5 -81t33.5 -78t15 -70.5h-172q-27 176 -222 176q-125 0 -184 -61.5t-59 -194.5v-98h250v-144h-250v-868h-172v868h-162zM881 0v1012h172v-1012h-172z" />
<glyph unicode="&#xfb02;" d="M84 868v144h162v78q0 217 96 313t313 96q70 0 105 -10q59 -12 63 -12h228v-1477h-172v1174q0 88 -58.5 140t-158.5 52q-244 0 -244 -217v-137h250v-144h-250v-868h-172v868h-162z" />
<glyph unicode="&#xfb03;" horiz-adv-x="1878" d="M1516 0v1012h172v-1012h-172zM1516 1206v221h172v-221h-172zM707 866v146h201v258q0 131 51 179t188 48q49 0 129 -10v-144q-43 4 -77 5q-68 0 -93.5 -28t-25.5 -101v-207h200v-146h-200v-866h-172v866h-201zM45 866v146h201v258q0 131 51 179t188 48q49 0 129 -10v-144 q-43 4 -77 5q-68 0 -93.5 -28t-25.5 -101v-207h200v-146h-200v-866h-172v866h-201z" />
<glyph unicode="&#xfb04;" horiz-adv-x="1878" d="M1516 0v1477h172v-1477h-172zM707 866v146h201v258q0 131 51 179t188 48q49 0 129 -10v-144q-43 4 -77 5q-68 0 -93.5 -28t-25.5 -101v-207h200v-146h-200v-866h-172v866h-201zM45 866v146h201v258q0 131 51 179t188 48q49 0 129 -10v-144q-43 4 -77 5q-68 0 -93.5 -28 t-25.5 -101v-207h200v-146h-200v-866h-172v866h-201z" />
</font>
</defs>
</svg>
